<svg xmlns="http://www.w3.org/2000/svg" width="45.148" height="49.831" viewBox="0 0 45.148 49.831">
  <g id="Icon_feather-lock" data-name="Icon feather-lock" transform="translate(-3 -1.5)">
    <path id="Tracé_507" data-name="Tracé 507" d="M9.183,16.5H41.965a4.683,4.683,0,0,1,4.683,4.683V37.574a4.683,4.683,0,0,1-4.683,4.683H9.183A4.683,4.683,0,0,1,4.5,37.574V21.183A4.683,4.683,0,0,1,9.183,16.5Z" transform="translate(0 7.574)" fill="none" stroke="#ba144b" stroke-linecap="round" stroke-linejoin="round" stroke-width="3"/>
    <path id="Tracé_508" data-name="Tracé 508" d="M10.5,24.074V14.708a11.708,11.708,0,0,1,23.416,0v9.366" transform="translate(3.366 0)" fill="none" stroke="#ba144b" stroke-linecap="round" stroke-linejoin="round" stroke-width="3"/>
    <path id="Icon_ionic-ios-unlock" data-name="Icon ionic-ios-unlock" d="M20.531,24.318v4.194a1.49,1.49,0,0,1-1.382,1.5,1.457,1.457,0,0,1-1.528-1.455V24.318a3.326,3.326,0,1,1,2.91,0Z" transform="translate(6.499 12.947)" fill="#ba144b"/>
  </g>
</svg>
