<svg xmlns="http://www.w3.org/2000/svg" width="82.061" height="43.499" viewBox="0 0 82.061 43.499">
  <g id="Groupe_274" data-name="Groupe 274" transform="translate(-126.303 -276.007)">
    <path id="Tracé_512" data-name="Tracé 512" d="M171.231,341.237h2.354a.922.922,0,0,0,0-1.845h-2.354a.922.922,0,1,0,0,1.845Z" transform="translate(-39.036 -55.538)" fill="#ba144b"/>
    <path id="Tracé_513" data-name="Tracé 513" d="M208.882,441.274a.922.922,0,0,0,0,1.844H224.1a.922.922,0,1,0,0-1.844Z" transform="translate(-72.435 -144.807)" fill="#ba144b"/>
    <path id="Tracé_514" data-name="Tracé 514" d="M169.864,393.261h15.213a.922.922,0,0,0,0-1.844H169.864a.922.922,0,0,0,0,1.844Z" transform="translate(-37.823 -101.123)" fill="#ba144b"/>
    <path id="Tracé_515" data-name="Tracé 515" d="M228.391,341.237H243.6a.922.922,0,0,0,0-1.845H228.391a.922.922,0,0,0,0,1.845Z" transform="translate(-87.426 -55.538)" fill="#ba144b"/>
    <path id="Tracé_516" data-name="Tracé 516" d="M327.9,300.014a4.982,4.982,0,0,0-.617-2.318l-6.982-12.714a3.447,3.447,0,0,0-3.055-1.722H304.211v-3.435a3.764,3.764,0,0,0-3.7-3.82H264.9a3.764,3.764,0,0,0-3.7,3.82,1.107,1.107,0,0,0,2.206,0,1.694,1.694,0,0,1,1.49-1.806h35.619a1.694,1.694,0,0,1,1.49,1.806v30.381H285.7a8.154,8.154,0,0,0-15.163,0H264.9a1.694,1.694,0,0,1-1.49-1.806,1.107,1.107,0,0,0-2.206,0,3.763,3.763,0,0,0,3.7,3.82H270.2c0,.02,0,.039,0,.059,0,3.984,3.551,7.225,7.915,7.225s7.915-3.241,7.915-7.225c0-.02,0-.039,0-.059h18.7c0,.02,0,.039,0,.059,0,3.984,3.551,7.225,7.915,7.225s7.915-3.241,7.915-7.225c0-.02,0-.039,0-.059h4.059a3.552,3.552,0,0,0,2.424-.924,2.953,2.953,0,0,0,.983-2.224Zm-49.788,17.478a5.484,5.484,0,0,1-5.709-5.212,4.8,4.8,0,0,1,.477-2.079q.084-.176.182-.345c.039-.067.081-.132.123-.2s.081-.125.124-.186.091-.126.138-.188.1-.126.153-.187.107-.126.163-.187q.129-.138.267-.268c.051-.047.1-.092.156-.137s.135-.115.205-.17c.054-.042.108-.084.163-.125.086-.063.175-.123.266-.182.041-.027.081-.056.123-.081.129-.079.262-.152.4-.221.05-.026.1-.049.153-.073q.149-.071.3-.133c.053-.021.1-.043.158-.063q.2-.075.408-.137l.06-.019c.158-.045.32-.082.484-.114.049-.01.1-.017.149-.026q.186-.032.377-.053c.051-.006.1-.012.153-.016.173-.015.347-.024.524-.024s.351.01.524.024c.051,0,.1.01.153.016q.19.021.377.053c.05.008.1.016.149.026.164.032.326.069.484.114l.06.019q.207.061.408.137c.053.02.106.041.158.063q.154.063.3.133c.051.024.1.048.153.073.136.069.269.142.4.221.042.026.081.054.123.081.09.059.18.119.266.182.055.041.11.082.163.125.07.055.138.112.205.17s.105.09.156.137q.138.13.267.268c.057.061.11.124.163.187s.1.123.153.187.093.125.138.188.084.123.124.186.084.13.123.2q.1.169.182.345a4.8,4.8,0,0,1,.477,2.079A5.484,5.484,0,0,1,278.117,317.492Zm34.528,0a5.484,5.484,0,0,1-5.709-5.212,4.8,4.8,0,0,1,.475-2.075c.057-.119.119-.235.185-.35.039-.067.081-.131.123-.2s.081-.125.124-.187.09-.126.138-.188.1-.126.154-.188.105-.125.162-.185q.129-.139.268-.269c.051-.047.1-.092.156-.137s.135-.115.206-.171c.054-.042.108-.084.163-.125.087-.063.176-.123.266-.182.041-.027.08-.055.122-.081.129-.079.262-.152.4-.221.05-.026.1-.049.153-.073q.149-.071.3-.134c.052-.021.1-.043.158-.063q.2-.075.408-.137l.06-.019c.158-.045.32-.082.484-.114.049-.01.1-.017.149-.026q.186-.032.377-.053c.051-.006.1-.012.153-.016.173-.015.347-.024.524-.024s.351.01.524.024c.051,0,.1.01.153.016q.19.021.377.053c.05.008.1.016.149.026.164.032.326.069.484.114l.06.019q.207.061.407.137c.053.02.106.041.158.063.1.042.2.086.3.133.051.024.1.048.153.073.136.069.269.142.4.221.042.026.081.054.123.081.09.059.179.119.266.182.056.041.11.082.163.125.07.055.138.112.205.17s.105.09.156.137q.139.13.267.268c.057.061.11.124.163.187s.1.123.153.187.093.125.138.188.084.123.124.186.084.13.123.2q.1.169.182.345a4.8,4.8,0,0,1,.477,2.079A5.484,5.484,0,0,1,312.645,317.492Zm12.828-7.61a1.253,1.253,0,0,1-.855.326h-4.391a8.154,8.154,0,0,0-15.163,0h-.853V285.275H317.25a1.222,1.222,0,0,1,1.083.611l6.506,11.846H312.645v-8.1a1.107,1.107,0,0,0-2.206,0v10.118h15.237c.011.1.021.2.022.293l.121,9.059A1.041,1.041,0,0,1,325.473,309.882Z" transform="translate(-119.662)" fill="#ba144b"/>
    <path id="Tracé_517" data-name="Tracé 517" d="M133.857,442.2a.922.922,0,0,0-.922-.922h-5.71a.922.922,0,1,0,0,1.844h5.71A.922.922,0,0,0,133.857,442.2Z" transform="translate(0 -144.807)" fill="#ba144b"/>
    <path id="Tracé_518" data-name="Tracé 518" d="M179.5,493.135a.922.922,0,0,0-.922-.922H163.361a.922.922,0,0,0,0,1.845h15.213A.922.922,0,0,0,179.5,493.135Z" transform="translate(-32.055 -189.44)" fill="#ba144b"/>
  </g>
</svg>
