<svg xmlns="http://www.w3.org/2000/svg" width="49.704" height="49.722" viewBox="0 0 49.704 49.722">
  <g id="_29-Speech_Bubble" data-name="29-Speech Bubble" transform="translate(1.007 1.022)">
    <path id="Tracé_22" data-name="Tracé 22" d="M41.781,16.9A20.669,20.669,0,1,0,21.669,42.339V48.7a18.062,18.062,0,0,0,3.975-1.129" transform="translate(-1 -0.999)" fill="none" stroke="#ba144b" stroke-linejoin="round" stroke-width="2"/>
    <path id="Tracé_23" data-name="Tracé 23" d="M15,25.259A12.719,12.719,0,1,1,27.719,37.979V41.89s-6.36-.859-7.25-6.185A12.719,12.719,0,0,1,15,25.259Z" transform="translate(7.258 5.81)" fill="none" stroke="#ba144b" stroke-linejoin="round" stroke-width="2"/>
    <line id="Ligne_2" data-name="Ligne 2" x2="19" transform="translate(10.765 10.849)" fill="none" stroke="#ba144b" stroke-linejoin="round" stroke-width="2"/>
    <line id="Ligne_3" data-name="Ligne 3" x2="11" transform="translate(10.765 18.849)" fill="none" stroke="#ba144b" stroke-linejoin="round" stroke-width="2"/>
    <line id="Ligne_4" data-name="Ligne 4" x2="8" transform="translate(10.765 26.849)" fill="none" stroke="#ba144b" stroke-linejoin="round" stroke-width="2"/>
    <path id="Tracé_24" data-name="Tracé 24" d="M19,22.77l3.975,3.975L31.719,18" transform="translate(9.618 9.031)" fill="none" stroke="#ba144b" stroke-linejoin="round" stroke-width="2"/>
  </g>
</svg>
