<?xml version="1.0" encoding="utf-8"?>
<!-- Generator: Adobe Illustrator 24.1.3, SVG Export Plug-In . SVG Version: 6.00 Build 0)  -->
<svg version="1.1" id="Calque_1" xmlns="http://www.w3.org/2000/svg" xmlns:xlink="http://www.w3.org/1999/xlink" x="0px" y="0px"
	 viewBox="0 0 18.6 18.6" style="enable-background:new 0 0 18.6 18.6;" xml:space="preserve">
<g transform="translate(1.771 1.747)">
	<path d="M12.2,15.6H2.9c-1.9,0-3.4-1.5-3.4-3.4c0-0.3,0-0.6,0.1-0.8l1.9-7.6c0.1-0.3,0.3-0.5,0.6-0.5h10.3c0.3,0,0.5,0.2,0.6,0.4
		l2.3,7.5c0.3,1,0.1,2.2-0.5,3C14.3,15.1,13.2,15.6,12.2,15.6L12.2,15.6z M2.6,4.5l-1.8,7.2c-0.3,1.2,0.4,2.3,1.6,2.6
		c0.2,0,0.3,0.1,0.5,0.1h9.2c0.7,0,1.3-0.3,1.7-0.9c0.4-0.6,0.5-1.3,0.3-1.9l-2.2-7H2.6z"/>
	<path d="M10,8.2c-0.3,0-0.6-0.3-0.6-0.6V2.6c0-1-0.8-1.8-1.8-1.8S5.7,1.6,5.7,2.6v4.9c0,0.3-0.3,0.6-0.6,0.6
		c-0.3,0-0.6-0.3-0.6-0.6V2.6c0-1.7,1.4-3.1,3.1-3.1s3.1,1.4,3.1,3.1v4.9C10.6,7.9,10.3,8.2,10,8.2z"/>
</g>
</svg>
