<svg xmlns="http://www.w3.org/2000/svg" width="44.148" height="48.831" viewBox="0 0 44.148 48.831">
  <g id="lock" transform="translate(-3.5 -2)">
    <path id="Tracé_507" data-name="Tracé 507" d="M9.183,16.5H41.965a4.683,4.683,0,0,1,4.683,4.683V37.574a4.683,4.683,0,0,1-4.683,4.683H9.183A4.683,4.683,0,0,1,4.5,37.574V21.183A4.683,4.683,0,0,1,9.183,16.5Z" transform="translate(0 7.574)" fill="none" stroke="#640927" stroke-linecap="round" stroke-linejoin="round" stroke-width="2"/>
    <path id="Tracé_508" data-name="Tracé 508" d="M10.5,24.074V14.708a11.708,11.708,0,1,1,23.416,0v9.366" transform="translate(3.366)" fill="none" stroke="#640927" stroke-linecap="round" stroke-linejoin="round" stroke-width="2"/>
    <path id="Icon_ionic-ios-unlock" data-name="Icon ionic-ios-unlock" d="M21.455,25.539v5a1.778,1.778,0,0,1-1.649,1.79A1.739,1.739,0,0,1,17.983,30.6V25.539a3.969,3.969,0,1,1,3.473,0Z" transform="translate(5.856 11.786)" fill="none" stroke="#640927" stroke-width="2"/>
  </g>
</svg>
