<?xml version="1.0" encoding="utf-8"?>
<!-- Generator: Adobe Illustrator 24.1.3, SVG Export Plug-In . SVG Version: 6.00 Build 0)  -->
<svg version="1.1" id="Calque_1" xmlns="http://www.w3.org/2000/svg" xmlns:xlink="http://www.w3.org/1999/xlink" x="0px" y="0px"
	 viewBox="0 0 470 229" style="enable-background:new 0 0 470 229;" xml:space="preserve">
<style type="text/css">
	.st0{enable-background:new    ;}
</style>
<g transform="translate(-140 -196)">
	<g class="st0">
		<path d="M267,307.6c1-1.8,1.8-3.1,2.2-3.8c0.3-0.4,0.1-0.7-0.6-0.8c-0.7-0.1-2.8-0.1-6.4-0.1c-3.3,0-5.6,0-6.9-0.1
			c-1.3-0.1-2.8-0.3-4.3-0.6c-6.1-1.5-11.1-4.2-15-8.1c-1.9-2.1-3.3-4.1-4-6.2c-0.7-2-1-4.3-0.9-6.8c0.1-1.5,0.3-2.6,0.4-3.4
			c0.1-0.7,0.5-1.7,1.1-2.9c1.6-3.4,4.3-6.5,8-9.3c3.7-2.8,8-4.9,12.9-6.4c3-0.7,5.8-1.3,8.4-1.6c2.6-0.3,6.1-0.4,10.4-0.4
			c4.3,0.3,7.9,0.6,10.6,1c2.8,0.4,6,1.2,9.7,2.4c0.9,0.3,1.7,0.6,2.5,0.8c0.7,0.2,1.3,0.3,1.6,0.3c0.3,0.2,0.8-0.1,1.5-0.8
			c0.7-0.7,1.8-2.1,3.5-4.1c1.3-1.5,2.8-3.1,4.3-4.7c1.5-1.6,3-3.2,4.6-4.8c1.6-1.6,3.1-3,4.5-4.4c1.4-1.3,2.6-2.5,3.7-3.4
			c5.1-3.7,9.5-5.6,13.2-5.6c0.9,0,1.9,0.3,3.1,0.9c3.4,2.1,4.6,6.5,3.6,13.2c-1.6,10.3-7.5,20.3-17.7,30
			c-5.7,5.7-12.3,10.5-19.9,14.4c-7.6,4-15.7,7-24.2,9.1c-0.4,0.2-0.8,0.3-1,0.4c-0.2,0.2-0.5,0.5-0.9,1c-0.4,0.5-0.9,1.3-1.5,2.4
			c-0.6,1-1.4,2.5-2.5,4.3c-1.5,2.7-3.2,5.8-5,9.3c-1.9,3.5-3.6,6.8-5.2,10s-3.4,6.9-5.5,11.2c0.1,0,1.3,0,3.6-0.1
			c2.2-0.1,4.9-0.2,8.1-0.3c3.3-0.2,7.7-0.2,13.1-0.2c5.4,0,10.9,0,16.5,0c5.5,0,10.6,0.1,15.1,0.2c4.6,0.1,7.7,0.3,9.3,0.4
			c4.8,0.4,8,1,9.5,1.8c1.6,0.7,2,1.9,1.2,3.6c-0.3,0.7-1,1.3-2.1,1.8c-1.1,0.4-3.2,1-6.2,1.8c-4.8,1.2-7.5,1.7-8.3,1.6
			c-0.7-0.2,0.8-0.9,4.7-2.2c6.4-2.4,9.4-3.8,9-4.3c-0.2-0.2-1.9-0.3-5.4-0.3c-3.4-0.1-7.7-0.2-12.9-0.3c-5.2-0.2-10.8-0.3-16.9-0.4
			c-6.1-0.2-11.9-0.2-17.2-0.2s-10,0-13.9,0c-3.9,0-6.2,0-6.9,0l-2,0.4l-3.4,5.6c-6.9,12.4-12.9,20.8-18.1,25.1
			c-1.5,1.2-3.4,2.4-5.7,3.6c-2.3,1.2-4.3,2-5.9,2.5c-1.6,0.3-3.5,0.5-5.5,0.7c-2,0.1-3.8,0.1-5.5,0c-2.4-0.3-5-1-7.7-2.1
			c-2.8-1.1-5.5-2.5-8.1-4c-2.6-1.6-5-3.3-7.2-5.3c-2.2-1.9-3.8-3.8-5-5.6c-2.7-3.9-2.5-7.2,0.7-9.9c4.6-4.5,16.1-7.9,34.3-10.3
			c1.9-0.3,3.7-0.6,5.4-0.8c1.6-0.2,3.5-0.4,5.5-0.6c2-0.2,4.3-0.3,6.9-0.6c2.6-0.2,5.9-0.5,10-0.8c1.5-0.2,2.8-0.3,3.8-0.3
			c1-0.1,1.6-0.2,1.8-0.3c0.4,0,1-0.8,1.6-2.5c0.4-0.9,1.4-2.8,2.9-5.6c1.5-2.8,3.1-5.9,4.8-9.3c1.7-3.4,3.4-6.5,4.9-9.4
			C265.6,310.4,266.6,308.5,267,307.6z M248.4,343l-4.7,0.2c-20.5,1-36.1,2.9-46.9,5.6c-10.8,2.7-16.2,6-16.2,10.1
			c0,1.3,0.8,3.1,2.5,5.2c1.6,2.1,3.6,4,5.8,5.6c2.1,1.6,4.7,3.2,7.7,4.6c3.1,1.4,5.9,2.5,8.6,3.2c1.8,0.4,3.9,0.7,6.4,0.8
			c2.5,0.1,4.5-0.1,6.2-0.6c4.3-1,8.5-3.6,12.5-7.6c1-1.2,2.2-2.5,3.4-3.9c1.2-1.4,2.2-2.7,2.9-3.7c0.6-0.9,1.5-2.2,2.6-3.9
			c1.1-1.7,2.3-3.5,3.5-5.4c1.2-1.9,2.3-3.6,3.2-5.3c1-1.6,1.6-2.8,1.9-3.6L248.4,343z M271.3,300.5l2.9-4.9
			c0.9-1.5,2.1-3.4,3.7-5.7c1.6-2.3,3.2-4.7,4.8-7.2c1.6-2.5,3.2-4.9,4.8-7.2c1.6-2.3,2.9-4.1,3.9-5.5c2.1-2.5,3.1-4.1,3.1-4.7
			c0-0.1-0.5-0.4-1.6-0.8c-1-0.4-2.4-0.8-3.9-1.2c-1.6-0.4-3.3-0.9-5.2-1.3c-1.9-0.4-3.6-0.8-5.3-1.1c-2.7-0.4-6.1-0.7-10.3-0.7
			c-1.9,0-3.8,0.1-5.5,0.2c-1.7,0.2-3.2,0.4-4.6,0.7c-6,1.2-11,3.1-15,5.7c-4,2.6-6.9,5.6-8.5,9.1c-0.7,1.5-1.2,2.5-1.3,3.1
			c-0.2,0.6-0.2,1.7,0,3.4c0,2.5,0.3,4.5,0.9,5.9c0.6,1.4,1.7,3,3.4,4.6c2.8,2.8,6.5,5,11,6.5c4.5,1.5,9.3,2.1,14.6,1.8
			c1.2-0.1,2.4-0.3,3.5-0.3c1.1-0.1,2-0.1,2.6-0.1L271.3,300.5z M298.4,267.3c-0.3,0.2-1.5,1.7-3.6,4.6c-2.1,2.9-4.5,6.4-7.2,10.4
			c-1,1.6-2.2,3.4-3.4,5.3c-1.2,1.9-2.3,3.6-3.4,5.3c-1,1.6-2.2,3.6-3.6,5.8c0,0.3,0.3,0.4,0.9,0.3c0.6-0.1,1.9-0.5,4-1.2
			c2.5-0.7,5-1.6,7.4-2.6c2.4-1,5.3-2.3,8.7-3.9c8.2-4,15.4-8.9,21.6-14.7c6.2-5.7,10.8-12,13.8-18.7c1.2-2.4,2.1-4.6,2.6-6.7
			c0.5-2.1,0.8-4.3,0.8-6.5c0.1-4.3-0.8-6.9-2.9-7.8c-0.6-0.3-1.4-0.4-2.5-0.4c-4.3,0.3-10.1,4-17.2,11.2c-1.2,1.3-2.6,2.9-4.1,4.6
			c-1.6,1.7-3,3.4-4.4,4.9c-1.3,1.6-2.5,3-3.5,4.3c-1,1.3-1.5,2-1.5,2.1c0,0.4,0.4,0.8,1.1,1.1c0.6,0.4,1.1,1.1,1.6,2
			c0.4,0.9,0.5,1.5,0.2,1.8c-0.2,0.3-0.4,0.6-0.8,0.9c-0.4,0.3-0.7,0.4-1,0.4c-0.3,0-0.9-0.4-1.8-1.3
			C299.2,267.5,298.5,267.2,298.4,267.3z"/>
		<path d="M306.9,307c0.7,0.7,1.1,2.2,1.1,4.4c0,2.2-0.4,4.3-1.1,6.4L306,320l1.3-0.2c2.1-0.3,4.7-1.1,7.7-2.4
			c3.1-1.3,6.1-2.7,9.1-4.4c2.5-1.5,4-2.2,4.3-2.2c0.4,0,0.4,0.3-0.2,0.8c-0.6,0.5-1.5,1.2-2.7,2c-1.2,0.8-2.5,1.7-4,2.6
			c-1.5,0.9-3,1.6-4.5,2.2c-3.1,1.5-6.8,2.7-11,3.6c-0.7,0.3-1.7,1.5-2.9,3.6c-3.7,6.4-7.8,10.7-12.1,12.8c-0.9,0.3-1.9,0.5-3,0.7
			s-2.1,0.1-2.8-0.2c-0.7-0.3-1.5-0.9-2.2-1.9c-0.7-1-1.2-1.8-1.3-2.6c-0.3-2.1-0.1-4.6,0.6-7.6c0.7-3,1.8-5.7,3.5-8.3
			c1-1.6,2.3-3.4,3.8-5.4c1.5-1.9,2.8-3.4,4-4.3c1.5-1,2.6-1.5,3.4-1.3c0.7,0,1.6-0.1,2.5-0.4c1.5-0.9,2.9-1.3,4.3-1.3
			C305,305.6,306.2,306.1,306.9,307z M302.4,322.4l-2-0.4c-3.7-0.7-6-2.4-6.7-4.9c0-0.4-0.1-0.7-0.2-0.7c-0.4,0.2-1,1-1.8,2.7
			c-1.3,1.9-2.3,3.5-2.8,4.7c-0.5,1.2-1.2,2.7-1.9,4.5c-2.2,6.9-0.5,9,5.2,6.3c3.1-1.6,6-4.6,8.5-9L302.4,322.4z M305.6,312.3
			c0-1.5,0-2.5-0.1-2.9c-0.1-0.4-0.3-0.9-0.6-1.3c-0.4-0.7-1.3-0.8-2.5-0.2c-2.4,1-4,2.5-4.9,4.3c-1.2,1.9-1.3,3.7-0.2,5.4
			c0.4,0.6,1.2,1.2,2.2,1.7c1,0.5,2,0.8,2.9,0.8c0.6,0,1-0.1,1.1-0.3c0.1-0.2,0.4-0.9,0.9-1.9C304.9,316.2,305.3,314.4,305.6,312.3z
			"/>
		<path d="M371.6,308.1c0,0.2-0.9,0.7-2.6,1.6c-1.7,0.9-3.7,1.8-5.9,2.8c-2.2,1-4.5,1.9-6.7,2.8c-2.2,0.9-3.9,1.5-4.9,1.8
			c-1.6,0.4-3.3,0.6-5,0.4c-1.7-0.1-3-0.5-3.7-1.1l-0.9-1.1l-1.3,1.8c-0.9,1-1.9,2.2-3,3.6s-2.2,2.6-3.4,3.8c-1.1,1.2-2.1,2.3-3,3.4
			c-0.9,1-1.6,1.8-2.2,2.2c-5.1,4.6-8.7,6-11,4.3c-1.8-1.6-2.3-4.4-1.5-8.2c0.8-3.8,3-9.3,6.6-16.5c1.5-2.8,2.4-4.5,2.8-5
			c0.4-0.5,0.9-0.8,1.5-0.8c1.6-0.3,2.5,0.4,2.5,2.2c0,0.7-0.4,2.2-1.3,4.5c-0.9,2.2-2.2,5.5-3.8,9.9c-1.2,3-2.1,5.4-2.8,7.2
			s-0.9,2.8-0.6,3.1c0.4,0.4,2-0.4,4.7-2.5c2.7-2.1,5.4-4.6,8.1-7.4c3-3.1,5-5.3,5.9-6.5c1-1.2,1.5-2.3,1.7-3.4
			c0.1-0.4,0.3-1,0.4-1.7c0.1-0.7,0.4-1.3,0.7-1.9c0.7-1.3,1.8-2.9,3-4.6c1.3-1.7,2.2-2.8,2.8-3.2c0.7-0.3,1.3-0.3,1.6,0
			c0.6,0.3,0.7,1,0.2,2c-0.3,0.9-1,2.3-2.1,4.3c-1.1,1.9-2.3,3.7-3.5,5.4c-0.7,1-1.2,1.8-1.2,2.1c-0.1,0.4,0.1,0.9,0.6,1.5
			c0.4,0.4,1.6,0.7,3.4,0.7c1.6,0,3.2-0.2,4.8-0.7c1.6-0.4,4.3-1.4,8.2-2.9C367.9,308.8,371.6,307.5,371.6,308.1z"/>
		<path d="M362,322.6c-3,6.4-3.1,10.1-0.2,11c2.2,0.7,6.2-0.4,11.8-3.6c5.6-3.1,12.2-7.9,19.8-14.3c2.4-1.9,4-3.2,4.8-3.7
			c0.8-0.5,1.2-0.6,1.2-0.1c0,0.2-0.6,0.8-1.8,1.9c-1.2,1.1-2.7,2.5-4.4,4c-1.7,1.6-3.5,3.2-5.5,4.8c-1.9,1.6-3.6,3-4.9,4
			c-2.5,1.9-5.2,3.7-7.8,5.4c-2.7,1.6-4.9,2.8-6.5,3.6c-1.2,0.6-2.2,1-2.9,1.1c-0.7,0.2-1.7,0.2-2.9,0.2c-1.6,0.2-3.1,0-4.3-0.6
			c-1.2-0.5-2.2-1.6-2.9-3.2c-0.7-1.5-1-3.4-0.7-5.6c0.3-2.2,1-4.6,2.2-6.9c1.2-2.4,2.7-4.7,4.6-6.8c1.9-2.2,4-4.1,6.4-5.7
			c1.3-0.9,2.7-1.6,4.1-2.2c1.4-0.6,2.6-0.9,3.5-0.9c0.7,0,1.5,0.4,2.4,1.3c0.8,0.9,1.2,1.7,1.2,2.5c0,0.7-0.5,2-1.6,3.7
			c-1,1.7-2.2,3.2-3.6,4.6c-4.2,4.2-7.5,5.5-9.9,3.8l-1.1-0.9L362,322.6z M371,310.1c-0.4,0.3-1,0.8-1.6,1.5c-0.6,0.7-1.2,1.3-1.8,2
			c-0.6,0.7-1.1,1.3-1.6,1.9c-0.4,0.6-0.7,1-0.7,1.1c0,0.3,0.5,0.3,1.5,0c1-0.3,2.1-0.7,3.2-1.3c1.5-0.9,3-2.1,4.5-3.6
			c1.5-1.5,2.2-2.6,2.2-3.4c0-0.7-0.2-1.1-0.4-1.1c-0.4,0.2-1.2,0.5-2.4,1C372.9,308.7,371.9,309.4,371,310.1z"/>
	</g>
	<g class="st0">
		<path d="M411.9,330.8c-0.2,0.2-0.5,0.8-1,2c-0.5,1.2-1.1,2.6-1.7,4.3c-0.6,1.6-1.2,3.3-1.7,5c-0.5,1.7-0.9,3.1-1.2,4.1
			c-1,4.3-1.3,7.8-0.7,10.3c0.9,3.3,3.5,3.8,7.8,1.6c6-3.1,13.5-10.2,22.6-21.3c1.2-1.6,2.5-3.2,4-4.8c1.5-1.6,2.4-2.4,2.7-2.4
			c0.7-0.6,0.2,0.5-1.6,3.4c-1.5,2.2-3.3,4.7-5.5,7.4c-2.2,2.7-4.4,5.3-6.6,7.8c-2.2,2.5-4.5,4.8-6.7,6.8c-2.2,2-4.1,3.5-5.6,4.6
			c-4.6,3-8.4,3.8-11.2,2.5c-1.6-0.9-3-2.5-4-4.9c-1.6-4.6-0.6-11.9,3.1-22c1.6-4.3,4-9.3,6.9-15c3-5.7,6.1-10.9,9.4-15.7
			c2.2-3.3,4.6-6.4,7.1-9.4c2.5-3,4.8-5.6,7.1-7.8s4.3-4,6.3-5.4c1.9-1.3,3.6-2.2,4.9-2.5h0.7c1.5,0,2.2,0.9,2.2,2.7
			c0,1.2-0.6,3-1.7,5.3c-1.1,2.3-2.5,4.9-4.3,7.8c-1.7,2.9-3.7,6-5.8,9.2c-2.2,3.2-4.4,6.2-6.6,9.1c-1,1.3-2.3,2.8-3.8,4.4
			c-1.5,1.6-3,3.1-4.6,4.6c-1.6,1.5-3,2.8-4.4,3.9c-1.3,1.1-2.4,1.9-3.1,2.4c-0.6,0.3-1.2,0.6-1.8,1
			C412.7,330.2,412.2,330.5,411.9,330.8z M423.8,308.2c-0.9,1.2-1.9,2.7-2.9,4.6c-1,1.9-2.1,3.7-3,5.5c-1,1.8-1.8,3.4-2.5,4.7
			s-1,2.1-1,2.2c0,0.3,0.7-0.1,2.2-1.2c1.5-1.1,3.3-2.6,5.4-4.4c2.5-2.2,5.2-4.9,8.1-8.1c2.8-3.1,5.3-6.2,7.4-9.2
			c3.4-4.9,6.2-9.4,8.2-13.6c2-4.1,2.6-6.5,1.9-7.3l-0.2-0.2c-0.7-0.1-2.4,0.9-4.9,3.2c-2.5,2.3-5,4.9-7.4,7.7
			c-1.6,1.9-3.5,4.4-5.6,7.4C427.3,302.6,425.5,305.5,423.8,308.2z"/>
		<path d="M440.4,340.6c-3,6.4-3.1,10.1-0.2,11c2.2,0.7,6.2-0.4,11.8-3.6s12.2-7.9,19.8-14.3c2.4-1.9,4-3.2,4.8-3.7
			c0.8-0.5,1.2-0.6,1.2-0.1c0,0.2-0.6,0.8-1.8,1.9c-1.2,1.1-2.7,2.5-4.4,4c-1.7,1.6-3.5,3.2-5.5,4.8c-1.9,1.6-3.6,3-4.9,4
			c-2.5,1.9-5.2,3.7-7.8,5.4c-2.7,1.6-4.9,2.8-6.5,3.6c-1.2,0.6-2.2,1-2.9,1.1c-0.7,0.2-1.7,0.2-2.9,0.2c-1.6,0.2-3.1,0-4.3-0.6
			c-1.2-0.5-2.2-1.6-2.9-3.2c-0.7-1.5-1-3.4-0.7-5.6c0.3-2.2,1-4.6,2.2-6.9c1.2-2.4,2.7-4.7,4.6-6.8c1.9-2.2,4-4.1,6.4-5.7
			c1.3-0.9,2.7-1.6,4.1-2.2c1.4-0.6,2.6-0.9,3.5-0.9c0.7,0,1.5,0.4,2.4,1.3c0.8,0.9,1.2,1.7,1.2,2.5c0,0.7-0.5,2-1.6,3.7
			c-1,1.7-2.2,3.2-3.6,4.6c-4.2,4.2-7.5,5.5-9.9,3.8l-1.1-0.9L440.4,340.6z M449.4,328.1c-0.4,0.3-1,0.8-1.6,1.5
			c-0.6,0.7-1.2,1.3-1.8,2c-0.6,0.7-1.1,1.3-1.6,1.9c-0.4,0.6-0.7,1-0.7,1.1c0,0.3,0.5,0.3,1.5,0c1-0.3,2.1-0.7,3.2-1.3
			c1.5-0.9,3-2.1,4.5-3.6c1.5-1.5,2.2-2.6,2.2-3.4c0-0.7-0.2-1.1-0.4-1.1c-0.4,0.2-1.2,0.5-2.4,1
			C451.3,326.7,450.2,327.4,449.4,328.1z"/>
		<path d="M532.5,299.4c-0.4,0-0.6-0.2-0.3-0.7s0.7-0.8,1.5-1.1l1.3-0.7h-3.1c-1.6,0-4.6,0.1-8.8,0.2c-4.3,0.2-11,0.4-20.3,0.7
			l-6.5,0.2l-3.8,6c-14.5,22.7-22.8,39.6-25.1,50.8c-1,4.9-0.1,7.2,2.9,6.7c1-0.2,2.2-0.5,3.5-1c1.3-0.5,2.8-1.5,4.6-2.9
			c1.8-1.4,4-3.3,6.5-5.7c2.5-2.4,5.7-5.5,9.6-9.4c3.3-3.3,5.9-5.8,7.7-7.5c1.9-1.7,3.2-2.9,4.1-3.7c0.9-0.7,1.5-1.2,1.8-1.3
			c0.3-0.1,0.6-0.2,0.9-0.2c0.1,0-0.3,0.6-1.5,1.9c-1.1,1.3-2.6,2.9-4.5,4.8c-1.9,1.9-4,4.1-6.3,6.4c-2.3,2.3-4.6,4.6-6.7,6.7
			c-2.2,2.2-4.1,4.1-5.8,5.7c-1.7,1.6-3,2.8-3.7,3.4c-4.5,3.9-8.2,5.8-11.2,5.8c-1.5,0-2.5-0.3-3.1-0.9c-2.2-1.8-2.9-5-2-9.6
			c0.9-5.1,3.4-12,7.5-20.8c4.1-8.8,9.3-18.5,15.6-29.1c0.4-0.7,0.9-1.5,1.2-2.1c0.4-0.7,0.7-1.3,1-1.9c0.3-0.6,0.6-1.1,0.9-1.6
			c-0.2,0-0.9,0-2.4,0c-1.4,0-3.1,0.1-5,0.2c-2.1,0.2-4.6,0.3-7.6,0.3c-3,0.1-5.6,0.1-7.8,0.1c-3.4,0-5.7,0-6.9-0.1
			c-1.2-0.1-2-0.3-2.5-0.6c-1.6-0.7-2.1-1.6-1.3-2.7c0.3-0.7,0.8-1.2,1.5-1.3c0.7-0.1,1.8,0,3.5,0.4c2.5,0.6,5.7,1,9.5,1.2
			c3.8,0.2,8,0.3,12.7,0.1l8.1-0.4l4-6c3.7-5.5,6.6-9.5,8.7-12c2.1-2.5,3.7-3.7,4.9-3.7c1.5,0,2.2,0.6,2.2,1.8c0,0.3-0.4,1-1.1,2
			c-0.7,1-1.6,2.2-2.5,3.4c-0.9,1.2-1.9,2.5-3,4c-1.1,1.5-2.2,3-3.2,4.4c-1,1.4-1.9,2.7-2.7,3.8c-0.7,1.1-1.1,1.8-1.1,1.9
			c-0.3,0.6,7.4,0.2,23.1-1.1c4.8-0.4,8.5-0.7,11.1-0.9c2.6-0.1,4.5-0.2,5.7-0.2c1.2,0,2,0,2.4,0.1c0.4,0.1,0.8,0.2,1.2,0.3
			c1.3,0.4,1.9,1.3,1.8,2.5c-0.2,1.2-1,1.9-2.5,2.2c-0.7,0.3-2.2,0.6-4.3,0.8C534.6,299.3,533.2,299.4,532.5,299.4z"/>
		<path d="M563.6,299.4c-0.4,0-0.6-0.2-0.3-0.7s0.7-0.8,1.5-1.1l1.3-0.7h-3.1c-1.6,0-4.6,0.1-8.8,0.2c-4.3,0.2-11,0.4-20.3,0.7
			l-6.5,0.2l-3.8,6c-14.5,22.7-22.8,39.6-25.1,50.8c-1,4.9-0.1,7.2,2.9,6.7c1-0.2,2.2-0.5,3.5-1c1.3-0.5,2.8-1.5,4.6-2.9
			c1.8-1.4,4-3.3,6.5-5.7c2.5-2.4,5.7-5.5,9.6-9.4c3.3-3.3,5.9-5.8,7.7-7.5c1.9-1.7,3.2-2.9,4.1-3.7c0.9-0.7,1.5-1.2,1.8-1.3
			c0.3-0.1,0.6-0.2,0.9-0.2c0.1,0-0.3,0.6-1.5,1.9c-1.1,1.3-2.6,2.9-4.5,4.8c-1.9,1.9-4,4.1-6.3,6.4c-2.3,2.3-4.6,4.6-6.7,6.7
			c-2.2,2.2-4.1,4.1-5.8,5.7c-1.7,1.6-2.9,2.8-3.7,3.4c-4.5,3.9-8.2,5.8-11.2,5.8c-1.5,0-2.5-0.3-3.1-0.9c-2.2-1.8-2.9-5-2-9.6
			c0.9-5.1,3.4-12,7.5-20.8c4.1-8.8,9.3-18.5,15.6-29.1c0.4-0.7,0.9-1.5,1.2-2.1c0.4-0.7,0.7-1.3,1-1.9c0.3-0.6,0.6-1.1,0.9-1.6
			c-0.2,0-0.9,0-2.4,0c-1.4,0-3.1,0.1-5,0.2c-2.1,0.2-4.6,0.3-7.6,0.3c-3,0.1-5.6,0.1-7.8,0.1c-3.4,0-5.7,0-6.9-0.1
			c-1.2-0.1-2-0.3-2.5-0.6c-1.6-0.7-2.1-1.6-1.3-2.7c0.3-0.7,0.8-1.2,1.5-1.3c0.7-0.1,1.8,0,3.5,0.4c2.5,0.6,5.7,1,9.5,1.2
			c3.8,0.2,8,0.3,12.7,0.1l8.1-0.4l4-6c3.7-5.5,6.6-9.5,8.7-12c2.1-2.5,3.7-3.7,4.9-3.7c1.5,0,2.2,0.6,2.2,1.8c0,0.3-0.4,1-1.1,2
			c-0.8,1-1.6,2.2-2.5,3.4c-0.9,1.2-1.9,2.5-3,4c-1.1,1.5-2.2,3-3.2,4.4c-1,1.4-1.9,2.7-2.7,3.8c-0.8,1.1-1.1,1.8-1.1,1.9
			c-0.3,0.6,7.4,0.2,23.1-1.1c4.8-0.4,8.5-0.7,11.1-0.9c2.6-0.1,4.5-0.2,5.7-0.2c1.2,0,2,0,2.4,0.1c0.4,0.1,0.8,0.2,1.2,0.3
			c1.3,0.4,1.9,1.3,1.8,2.5c-0.2,1.2-1,1.9-2.5,2.2c-0.8,0.3-2.2,0.6-4.3,0.8C565.8,299.3,564.3,299.4,563.6,299.4z"/>
		<path d="M535.1,340.6c-3,6.4-3.1,10.1-0.2,11c2.2,0.7,6.2-0.4,11.8-3.6c5.6-3.1,12.2-7.9,19.8-14.3c2.4-1.9,4-3.2,4.8-3.7
			c0.8-0.5,1.2-0.6,1.2-0.1c0,0.2-0.6,0.8-1.8,1.9c-1.2,1.1-2.7,2.5-4.4,4c-1.7,1.6-3.5,3.2-5.5,4.8c-1.9,1.6-3.6,3-4.9,4
			c-2.5,1.9-5.2,3.7-7.8,5.4c-2.7,1.6-4.9,2.8-6.5,3.6c-1.2,0.6-2.2,1-2.9,1.1c-0.7,0.2-1.7,0.2-2.9,0.2c-1.6,0.2-3.1,0-4.3-0.6
			c-1.2-0.5-2.2-1.6-2.9-3.2c-0.7-1.5-1-3.4-0.7-5.6c0.3-2.2,1-4.6,2.2-6.9c1.2-2.4,2.7-4.7,4.6-6.8c1.9-2.2,4-4.1,6.4-5.7
			c1.3-0.9,2.7-1.6,4.1-2.2c1.4-0.6,2.6-0.9,3.5-0.9c0.7,0,1.5,0.4,2.4,1.3c0.8,0.9,1.2,1.7,1.2,2.5c0,0.7-0.5,2-1.6,3.7
			c-1,1.7-2.2,3.2-3.6,4.6c-4.2,4.2-7.5,5.5-9.9,3.8l-1.1-0.9L535.1,340.6z M544.1,328.1c-0.4,0.3-1,0.8-1.6,1.5
			c-0.6,0.7-1.2,1.3-1.8,2c-0.6,0.7-1.1,1.3-1.6,1.9c-0.4,0.6-0.7,1-0.7,1.1c0,0.3,0.5,0.3,1.5,0c1-0.3,2.1-0.7,3.2-1.3
			c1.5-0.9,3-2.1,4.5-3.6c1.5-1.5,2.2-2.6,2.2-3.4c0-0.7-0.2-1.1-0.4-1.1c-0.4,0.2-1.2,0.5-2.4,1C546,326.7,545,327.4,544.1,328.1z"
			/>
		<path d="M560.9,352.3c-1.3,0.7-2.4,0.6-3.1-0.4c-0.1-0.3-0.3-0.6-0.4-1c-0.1-0.4-0.2-0.7-0.2-1c0-0.9,0.6-2.6,1.9-5.2
			c1.3-2.5,3-5.3,5-8.3c3.7-5.5,6.6-9.5,8.7-12c2.1-2.5,3.7-3.6,4.7-3.5c0.4,0.2,0.8,0.3,1,0.6c0.2,0.2,0.2,0.7-0.1,1.3
			c-0.3,0.7-0.8,1.7-1.6,3.1c-0.8,1.4-1.9,3.4-3.4,5.9l-2,3.4l2.2-2.7c1.6-1.9,3.6-4,5.9-6.2c2.3-2.2,4-3.6,5-4.4
			c2.1-1.3,3.7-1.4,4.9-0.2c0.3,0.3,0.6,0.8,0.9,1.6c0.3,0.7,0.5,1.5,0.7,2.2c0.7,2.1,1.3,3.4,1.7,3.9c0.4,0.5,1.3,0.6,2.8,0.3
			c1.5,0,4-0.8,7.4-2.5c3-1.3,4.9-2.1,5.7-2.2c0.8-0.1,0.4,0.4-1.2,1.6c-2.1,1.6-4.6,3.1-7.4,4.3c-2.8,1.2-4.9,1.8-6.3,1.8
			c-2.4,0-4-1-4.9-2.9c-0.4-0.7-0.8-2-1.1-3.8c-0.2-0.7-0.3-1.4-0.3-1.9c-0.1-0.5-0.2-0.8-0.3-0.8c-0.2-0.3-0.7-0.1-1.8,0.6
			c-1,0.7-2.2,1.6-3.6,2.8c-1.6,1.6-3.5,3.7-5.6,6.2c-2.1,2.5-4.1,5-6,7.7c-2.5,3.4-4.6,6.2-6.2,8.2
			C562.4,350.8,561.3,352,560.9,352.3z"/>
	</g>
	<g class="st0">
		<path d="M152.9,291.8c-0.2,0.2-0.5,0.8-1,2c-0.5,1.2-1.1,2.6-1.7,4.3c-0.6,1.6-1.2,3.3-1.7,5c-0.5,1.7-0.9,3.1-1.2,4.1
			c-1,4.3-1.3,7.8-0.7,10.3c0.9,3.3,3.5,3.8,7.8,1.6c6-3.1,13.5-10.2,22.6-21.3c1.2-1.6,2.5-3.2,4-4.8c1.5-1.6,2.4-2.4,2.7-2.4
			c0.7-0.6,0.2,0.5-1.6,3.4c-1.5,2.2-3.3,4.7-5.5,7.4c-2.2,2.7-4.4,5.3-6.6,7.8c-2.2,2.5-4.5,4.8-6.7,6.8c-2.2,2-4.1,3.5-5.6,4.6
			c-4.6,3-8.4,3.8-11.2,2.5c-1.6-0.9-3-2.5-4-4.9c-1.6-4.6-0.6-11.9,3.1-22c1.6-4.3,4-9.3,6.9-15c3-5.7,6.1-10.9,9.4-15.7
			c2.2-3.3,4.6-6.4,7.1-9.4c2.5-3,4.8-5.6,7.1-7.8c2.2-2.2,4.3-4,6.3-5.4c1.9-1.3,3.6-2.2,4.9-2.5h0.7c1.5,0,2.2,0.9,2.2,2.7
			c0,1.2-0.6,3-1.7,5.3c-1.1,2.3-2.5,4.9-4.3,7.8c-1.7,2.9-3.7,6-5.8,9.2c-2.2,3.2-4.4,6.2-6.6,9.1c-1,1.3-2.3,2.8-3.8,4.4
			c-1.5,1.6-3,3.1-4.6,4.6c-1.6,1.5-3,2.8-4.4,3.9c-1.3,1.1-2.4,1.9-3.1,2.4c-0.6,0.3-1.2,0.6-1.8,1
			C153.7,291.2,153.2,291.5,152.9,291.8z M164.8,269.2c-0.9,1.2-1.9,2.7-2.9,4.6c-1,1.9-2.1,3.7-3,5.5c-1,1.8-1.8,3.4-2.5,4.7
			s-1,2.1-1,2.2c0,0.3,0.7-0.1,2.2-1.2c1.5-1.1,3.3-2.6,5.4-4.4c2.5-2.2,5.2-4.9,8.1-8.1c2.8-3.1,5.3-6.2,7.4-9.2
			c3.4-4.9,6.2-9.4,8.2-13.6c2-4.1,2.6-6.5,1.9-7.3l-0.2-0.2c-0.7-0.1-2.4,0.9-4.9,3.2c-2.5,2.3-5,4.9-7.4,7.7
			c-1.6,1.9-3.5,4.4-5.6,7.4C168.3,263.6,166.5,266.5,164.8,269.2z"/>
		<path d="M200.9,288.7c1.2,0,1.8,0.4,1.9,1.3c0.1,0.9-0.5,2.6-1.7,5.2c-1.6,3.9-2.7,6.9-3.2,9.2c-0.5,2.2-0.6,4.2-0.3,5.8
			c0.1,1.3,0.7,2.2,1.8,2.5c0.4,0.3,0.9,0.4,1.2,0.3c0.4-0.1,0.9-0.3,1.7-0.6c2.1-0.7,4.7-2.4,7.8-4.8c3.1-2.5,7.1-6.1,11.9-10.9
			c2.1-1.9,3.8-3.6,5.3-4.9c1.4-1.3,2.2-2,2.4-2c1,0-0.2,1.8-3.6,5.4c-4,4.5-8,8.4-11.8,11.8c-3.8,3.4-6.9,5.6-9.3,6.8
			c-4.8,2.4-8.1,1.9-9.9-1.6c-0.4-0.9-0.7-2.4-0.9-4.6c-0.2-2.2-0.1-3.9,0.2-5.3c0-0.3,0-0.5,0.1-0.6c0.1-0.1,0.1-0.3,0.1-0.6v-0.7
			l-1.1,1.1c-0.3,0.3-0.7,0.7-1.1,1.2c-0.4,0.5-0.9,1.1-1.3,1.7c-3.4,4.2-6.2,7.1-8.3,8.7c-2.1,1.6-4,2.5-5.8,2.7
			c-1.2,0.3-2.2,0.2-2.9-0.4c-1.5-0.9-2.2-2.6-2.2-5.2c0-1.8,0.5-3.8,1.5-6c1-2.2,2.2-4.4,3.8-6.5c1.6-2.1,3.4-4,5.6-5.8
			c2.2-1.8,4.4-3.3,6.6-4.5c2.4-1.3,4.6-2,6.5-2c1.9,0,3.1,0.7,3.6,2C199.8,288.3,200.3,288.7,200.9,288.7z M192.8,298.1
			c2.2-2.7,3.6-4.5,4.1-5.4c0.5-0.9,0.7-1.7,0.6-2.5c-0.2-0.7-0.4-1.1-0.9-1.1c-0.6-0.1-1.6,0.2-3.1,0.9c-2.8,1.3-5.7,3.6-8.6,6.7
			c-2.9,3.1-5.2,6.3-6.8,9.4c-2.1,4.2-2.3,6.3-0.7,6.3c0.4,0,1.5-0.5,3.1-1.6c1.3-0.9,3.2-2.5,5.5-4.9
			C188.3,303.5,190.6,300.9,192.8,298.1z"/>
	</g>
</g>
</svg>
