<svg xmlns="http://www.w3.org/2000/svg" width="58.603" height="58.627" viewBox="0 0 58.603 58.627">
  <g id="speech" transform="translate(1.008 1.026)">
    <path id="Tracé_22" data-name="Tracé 22" d="M49.389,19.867A24.525,24.525,0,1,0,25.525,50.052V57.6a21.432,21.432,0,0,0,4.717-1.34" transform="translate(-1 -0.999)" fill="none" stroke="#640927" stroke-linejoin="round" stroke-width="2"/>
    <path id="Tracé_23" data-name="Tracé 23" d="M15,27.632A15.092,15.092,0,1,1,30.092,42.725v4.641s-7.547-1.019-8.6-7.339A15.092,15.092,0,0,1,15,27.632Z" transform="translate(11.411 9.234)" fill="none" stroke="#640927" stroke-linejoin="round" stroke-width="2"/>
    <line id="Ligne_2" data-name="Ligne 2" x2="22.545" transform="translate(12.773 12.873)" fill="none" stroke="#640927" stroke-linejoin="round" stroke-width="2"/>
    <line id="Ligne_3" data-name="Ligne 3" x2="13.052" transform="translate(12.773 22.366)" fill="none" stroke="#640927" stroke-linejoin="round" stroke-width="2"/>
    <line id="Ligne_4" data-name="Ligne 4" x2="9.493" transform="translate(12.773 31.858)" fill="none" stroke="#640927" stroke-linejoin="round" stroke-width="2"/>
    <path id="Tracé_24" data-name="Tracé 24" d="M19,23.66l4.717,4.717L34.092,18" transform="translate(14.957 14.074)" fill="none" stroke="#640927" stroke-linejoin="round" stroke-width="2"/>
  </g>
</svg>
