<?xml version="1.0" encoding="utf-8"?>
<!-- Generator: Adobe Illustrator 24.1.3, SVG Export Plug-In . SVG Version: 6.00 Build 0)  -->
<svg version="1.1" id="Calque_1" xmlns="http://www.w3.org/2000/svg" xmlns:xlink="http://www.w3.org/1999/xlink" x="0px" y="0px"
	 viewBox="0 0 20 20" style="enable-background:new 0 0 20 20;" xml:space="preserve">
<style type="text/css">
	.st0{fill:none;}
</style>
<g transform="translate(1.875 1.875)">
	<path d="M8.1,7.5c-2.1,0-3.8-1.7-3.8-3.7S6.1,0,8.1,0s3.8,1.7,3.8,3.8S10.2,7.5,8.1,7.5z M8.1,1.2c-1.4,0-2.5,1.1-2.5,2.5
		s1.1,2.5,2.5,2.5s2.5-1.1,2.5-2.5S9.5,1.2,8.1,1.2z"/>
	<path d="M13.1,16.9c0,0-10,0-10,0c-1.1,0-2.1-0.6-2.7-1.5c-0.7-1.1-0.4-2.2,0.2-3.2c0.2-0.3,0.4-0.6,0.6-0.9
		C2,10.5,2.8,9.7,3.8,9.2C5,8.5,6.4,8.1,7.8,8.1c0,0,0.6,0,0.6,0c2.2,0,4.4,0.9,5.9,2.5c1,1,2.3,2.7,1.7,4.2
		C15.6,16,14.4,16.9,13.1,16.9z M1.3,13.9c0,0.2,0,0.3,0.1,0.5c0.3,0.8,1,1.3,1.8,1.3c0,0,10,0,10,0c0.7,0,1.3-0.4,1.7-1
		c0.4-0.8,0-1.5-0.5-2.1c-0.3-0.5-0.7-0.9-1.1-1.3c-0.8-0.8-1.8-1.3-2.9-1.6C9.7,9.5,9.1,9.4,8.4,9.4c0,0-0.6,0-0.6,0
		c-2.2,0-4.4,1.1-5.7,2.9C1.8,12.7,1.3,13.3,1.3,13.9z"/>
</g>
<rect y="0" class="st0" width="20" height="20"/>
</svg>
